<svg width="64" height="64" viewBox="0 0 64 64" xmlns="http://www.w3.org/2000/svg" role="img" aria-labelledby="title"><title id="title">TraderWiz icon: wizard hat with finance chart</title><defs><linearGradient id="bgGrad" x1="0" x2="1"><stop offset="0" stop-color="#1c3d5a"/><stop offset="1" stop-color="#0a2236"/></linearGradient></defs><rect width="64" height="64" rx="12" fill="url(#bgGrad)"/><ellipse cx="32" cy="38" rx="20" ry="5" fill="#fff" opacity="0.12"/><path d="M20,34 C22,24 30,20 32,20 C34,20 42,24 44,34 C44,34 36,30 32,30 C28,30 20,34 20,34 Z" fill="#1ec47c" opacity="0.98"/><path d="M28 26 C30 23 34 23 36 26" stroke="#04363b" stroke-width="1.4" fill="none" opacity="0.9"/><path d="M32 20 L33 22 L35 22 L33.5 23.5 L34.3 25.8 L32 24.4 L29.7 25.8 L30.5 23.5 L29 22 L31 22 Z" fill="#ffd166" opacity="0.98"/><g transform="translate(18,40)"><rect x="2" y="4" width="6" height="12" rx="1" fill="#ffb703"/><rect x="12" y="2" width="6" height="14" rx="1" fill="#fb8500"/><rect x="22" y="0" width="6" height="16" rx="1" fill="#9b4dca"/><polyline points="1,10 8,6 16,8 24,2 31,5" fill="none" stroke="#00b894" stroke-width="2" stroke-linecap="round" stroke-linejoin="round"/><circle cx="8" cy="6" r="1.6" fill="#00b894"/><circle cx="24" cy="2" r="1.6" fill="#00b894"/><circle cx="31" cy="5" r="1.6" fill="#00b894"/></g><rect x="40" y="34" width="2" height="12" rx="1" fill="#fff" transform="rotate(-25 41 40)" opacity="0.9"/><circle cx="43" cy="36" r="2" fill="#ffd166"/></svg>